<svg width="112" height="60" viewBox="0 0 112 60" fill="none" xmlns="http://www.w3.org/2000/svg">
<path d="M22.7 19C22.7 19.9167 22.475 20.7583 22.025 21.525C21.575 22.275 20.9667 22.875 20.2 23.325C19.45 23.775 18.6167 24 17.7 24H5.85V21.5H17.7C18.3833 21.5 18.9667 21.2583 19.45 20.775C19.95 20.275 20.2 19.6833 20.2 19C20.2 18.3167 19.95 17.7333 19.45 17.25C18.9667 16.75 18.3833 16.5 17.7 16.5H5.85V14H15.2C15.8833 14 16.4667 13.7583 16.95 13.275C17.45 12.775 17.7 12.1833 17.7 11.5C17.7 10.8167 17.45 10.2333 16.95 9.75C16.4667 9.25 15.8833 9 15.2 9H4.6V24H2.1V6.5H15.2C16.1167 6.5 16.95 6.725 17.7 7.175C18.4667 7.625 19.075 8.23333 19.525 9C19.975 9.75 20.2 10.5833 20.2 11.5C20.2 12.0167 20.125 12.5167 19.975 13C19.825 13.4667 19.6167 13.9 19.35 14.3C20.3333 14.6333 21.1333 15.2333 21.75 16.1C22.3833 16.95 22.7 17.9167 22.7 19ZM28.1352 24H25.6352V6.5H28.1352V24ZM49.0496 24H32.3246V6.5H34.8246V21.5H49.0496V24ZM53.892 24H51.392V6.5H53.892V24ZM70.6814 24H68.1814V15.25C68.1814 14.1 67.8981 13.05 67.3314 12.1C66.7814 11.15 66.0314 10.4 65.0814 9.85C64.1314 9.28333 63.0814 9 61.9314 9H60.5814V24H58.0814V6.5H61.9314C63.5148 6.5 64.9648 6.89167 66.2814 7.675C67.6148 8.45833 68.6648 9.48333 69.4314 10.75C70.1981 9.48333 71.2398 8.45833 72.5564 7.675C73.8898 6.89167 75.3481 6.5 76.9314 6.5H80.7814V24H78.2814V9H76.9314C75.7814 9 74.7314 9.28333 73.7814 9.85C72.8481 10.4 72.0981 11.15 71.5314 12.1C70.9648 13.05 70.6814 14.1 70.6814 15.25V24ZM22.7 49C22.7 49.9167 22.475 50.7583 22.025 51.525C21.575 52.275 20.9667 52.875 20.2 53.325C19.45 53.775 18.6167 54 17.7 54H5.85V51.5H17.7C18.3833 51.5 18.9667 51.2583 19.45 50.775C19.95 50.275 20.2 49.6833 20.2 49C20.2 48.3167 19.95 47.7333 19.45 47.25C18.9667 46.75 18.3833 46.5 17.7 46.5H5.85V44H15.2C15.8833 44 16.4667 43.7583 16.95 43.275C17.45 42.775 17.7 42.1833 17.7 41.5C17.7 40.8167 17.45 40.2333 16.95 39.75C16.4667 39.25 15.8833 39 15.2 39H4.6V54H2.1V36.5H15.2C16.1167 36.5 16.95 36.725 17.7 37.175C18.4667 37.625 19.075 38.2333 19.525 39C19.975 39.75 20.2 40.5833 20.2 41.5C20.2 42.0167 20.125 42.5167 19.975 43C19.825 43.4667 19.6167 43.9 19.35 44.3C20.3333 44.6333 21.1333 45.2333 21.75 46.1C22.3833 46.95 22.7 47.9167 22.7 49ZM44.2631 36.5L44.2381 45.25C44.2381 46.4667 44.0131 47.6083 43.5631 48.675C43.1131 49.725 42.4881 50.65 41.6881 51.45C40.8881 52.25 39.9548 52.875 38.8881 53.325C37.8381 53.775 36.7131 54 35.5131 54H33.6631C32.4631 54 31.3298 53.775 30.2631 53.325C29.2131 52.875 28.2881 52.25 27.4881 51.45C26.6881 50.6333 26.0631 49.7 25.6131 48.65C25.1631 47.5833 24.9381 46.45 24.9381 45.25V36.5H27.4381V45.25C27.4381 46.4 27.7131 47.45 28.2631 48.4C28.8298 49.3333 29.5881 50.0833 30.5381 50.65C31.4881 51.2167 32.5298 51.5 33.6631 51.5H35.5131C36.6631 51.5 37.7048 51.2167 38.6381 50.65C39.5881 50.0833 40.3381 49.3333 40.8881 48.4C41.4548 47.45 41.7381 46.4 41.7381 45.25V36.5H44.2631ZM64.577 54H47.852V36.5H50.352V51.5H64.577V54ZM86.8193 54H84.3193V49H70.3443V46.5H84.3193V39H75.3443C74.211 39 73.1693 39.2833 72.2193 39.85C71.2693 40.4 70.511 41.15 69.9443 42.1C69.3943 43.05 69.1193 44.1 69.1193 45.25V54H66.6193V45.25C66.6193 44.05 66.8443 42.925 67.2943 41.875C67.7443 40.8083 68.3693 39.875 69.1693 39.075C69.9693 38.2583 70.8943 37.625 71.9443 37.175C73.011 36.725 74.1443 36.5 75.3443 36.5H86.8193V54ZM111.366 54H107.991L99.066 45L93.516 49V54H91.016V36.5H93.516V46.25L107.241 36.5H110.891L100.966 43.625L111.366 54Z" fill="#0024D5"/>
</svg>
